# xmcd
#
# Track frame offsets: 
#        193
#        12795
#        39705
#        50835
#        65468
#        78763
#        114580
#        133325
#        157828
#        176633
#        190075
#        210230
#
# Disc length: 3045 seconds
#
# Revision: 2
# Processed by: cddbd v1.5.2PL0 Copyright (c) Steve Scherf et al.
# Submitted via: ExactAudioCopy v0.99pb3
#
DISCID=9b0be30c
DTITLE=Gerry Mulligan - Limelight
DYEAR=1900
DGENRE=Jazz
TTITLE0=Limelight
TTITLE1=Festive Minor
TTITLE2=Carioca
TTITLE3=The Lady is a Tramp
TTITLE4=My funny Valentine
TTITLE5=Rose Room
TTITLE6=Moonlight in Vermont
TTITLE7=Jeru
TTITLE8=What is here to say
TTITLE9=Turnstyle
TTITLE10=Utter Chaos
TTITLE11=As Catch Can
EXTD=
EXTT0=
EXTT1=
EXTT2=
EXTT3=
EXTT4=
EXTT5=
EXTT6=
EXTT7=
EXTT8=
EXTT9=
EXTT10=
EXTT11=
PLAYORDER=
